<svg xmlns="http://www.w3.org/2000/svg" xmlns:xlink="http://www.w3.org/1999/xlink" version="1.1" width="256" height="256" viewBox="0 0 256 256" xml:space="preserve">

<defs>
</defs>
<g style="stroke: none; stroke-width: 0; stroke-dasharray: none; stroke-linecap: butt; stroke-linejoin: miter; stroke-miterlimit: 10; fill: none; fill-rule: nonzero; opacity: 1;" transform="translate(1.4065934065934016 1.4065934065934016) scale(2.81 2.81)" >
	<path d="M 63.512 90 H 26.488 c -3.153 0 -5.719 -2.565 -5.719 -5.719 V 5.719 C 20.77 2.565 23.335 0 26.488 0 h 37.023 c 3.153 0 5.719 2.565 5.719 5.719 v 78.563 C 69.23 87.435 66.665 90 63.512 90 z M 26.488 2 c -2.05 0 -3.719 1.668 -3.719 3.719 v 78.563 c 0 2.051 1.668 3.719 3.719 3.719 h 37.023 c 2.051 0 3.719 -1.668 3.719 -3.719 V 5.719 C 67.23 3.668 65.563 2 63.512 2 H 26.488 z" style="stroke: none; stroke-width: 1; stroke-dasharray: none; stroke-linecap: butt; stroke-linejoin: miter; stroke-miterlimit: 10; fill: rgb(0,0,0); fill-rule: nonzero; opacity: 1;" transform=" matrix(1 0 0 1 0 0) " stroke-linecap="round" />
	<path d="M 46.52 83 H 43.48 c -0.552 0 -1 -0.447 -1 -1 s 0.448 -1 1 -1 h 3.039 c 0.553 0 1 0.447 1 1 S 47.072 83 46.52 83 z" style="stroke: none; stroke-width: 1; stroke-dasharray: none; stroke-linecap: butt; stroke-linejoin: miter; stroke-miterlimit: 10; fill: rgb(0,0,0); fill-rule: nonzero; opacity: 1;" transform=" matrix(1 0 0 1 0 0) " stroke-linecap="round" />
	<path d="M 39.76 9 h -1.52 c -0.552 0 -1 -0.448 -1 -1 s 0.448 -1 1 -1 h 1.52 c 0.552 0 1 0.448 1 1 S 40.312 9 39.76 9 z" style="stroke: none; stroke-width: 1; stroke-dasharray: none; stroke-linecap: butt; stroke-linejoin: miter; stroke-miterlimit: 10; fill: rgb(0,0,0); fill-rule: nonzero; opacity: 1;" transform=" matrix(1 0 0 1 0 0) " stroke-linecap="round" />
	<path d="M 51.76 9 h -7.52 c -0.552 0 -1 -0.448 -1 -1 s 0.448 -1 1 -1 h 7.52 c 0.553 0 1 0.448 1 1 S 52.313 9 51.76 9 z" style="stroke: none; stroke-width: 1; stroke-dasharray: none; stroke-linecap: butt; stroke-linejoin: miter; stroke-miterlimit: 10; fill: rgb(0,0,0); fill-rule: nonzero; opacity: 1;" transform=" matrix(1 0 0 1 0 0) " stroke-linecap="round" />
	<path d="M 11.17 16.181 c -0.103 0 -0.204 -0.02 -0.299 -0.06 l -0.823 -0.341 c -0.398 -0.165 -0.587 -0.623 -0.423 -1.02 c 0.04 -0.097 0 -0.167 -0.041 -0.207 c -0.042 -0.042 -0.111 -0.082 -0.209 -0.042 c -0.193 0.08 -0.405 0.08 -0.597 0 c -0.193 -0.08 -0.343 -0.23 -0.423 -0.423 l -0.341 -0.823 c -0.08 -0.192 -0.08 -0.404 0 -0.597 c 0.08 -0.193 0.23 -0.343 0.422 -0.423 c 0.098 -0.04 0.118 -0.118 0.118 -0.176 c 0 -0.058 -0.02 -0.136 -0.118 -0.176 c -0.193 -0.08 -0.343 -0.23 -0.423 -0.423 c -0.08 -0.193 -0.08 -0.405 0 -0.598 l 0.341 -0.823 c 0.08 -0.193 0.23 -0.343 0.423 -0.423 c 0.193 -0.08 0.405 -0.08 0.598 0 c 0.098 0.041 0.167 0 0.208 -0.041 c 0.041 -0.041 0.082 -0.111 0.042 -0.208 c -0.08 -0.193 -0.08 -0.405 0 -0.598 c 0.08 -0.193 0.23 -0.343 0.423 -0.423 l 0.823 -0.341 c 0.193 -0.08 0.405 -0.08 0.598 0 c 0.193 0.08 0.343 0.23 0.423 0.423 c 0.04 0.097 0.118 0.118 0.176 0.118 c 0.058 0 0.136 -0.02 0.176 -0.118 c 0.165 -0.398 0.623 -0.587 1.02 -0.423 l 0.824 0.341 c 0.192 0.08 0.342 0.23 0.423 0.422 c 0.08 0.193 0.08 0.405 0 0.598 c -0.04 0.098 0 0.167 0.041 0.208 c 0.041 0.041 0.11 0.082 0.208 0.041 c 0.397 -0.165 0.855 0.025 1.02 0.422 l 0.341 0.824 c 0.08 0.193 0.08 0.405 0 0.597 c -0.08 0.193 -0.23 0.343 -0.423 0.423 c -0.097 0.04 -0.118 0.118 -0.117 0.175 c 0 0.059 0.02 0.137 0.118 0.177 L 15.6 12.482 l 0.099 -0.237 c 0.192 0.08 0.342 0.23 0.422 0.423 c 0.08 0.193 0.08 0.405 0 0.597 l -0.341 0.823 c -0.165 0.397 -0.622 0.587 -1.019 0.423 c -0.098 -0.04 -0.167 0 -0.209 0.041 c -0.041 0.041 -0.082 0.11 -0.041 0.208 c 0.164 0.398 -0.025 0.855 -0.422 1.02 l -0.824 0.341 c -0.399 0.164 -0.856 -0.025 -1.02 -0.422 c -0.04 -0.098 -0.118 -0.118 -0.176 -0.118 c -0.058 0 -0.136 0.02 -0.176 0.118 c -0.08 0.193 -0.23 0.343 -0.423 0.423 C 11.374 16.161 11.273 16.181 11.17 16.181 z M 9.452 13.979 c 0.206 0 0.382 0.096 0.495 0.209 c 0.161 0.16 0.286 0.446 0.153 0.768 c -0.056 0.136 0.009 0.292 0.144 0.348 l 0.823 0.341 c 0.066 0.028 0.138 0.028 0.204 0 c 0.066 -0.027 0.117 -0.078 0.144 -0.144 c 0.133 -0.321 0.424 -0.435 0.652 -0.435 c 0.228 0 0.518 0.114 0.651 0.436 c 0.056 0.135 0.212 0.199 0.349 0.144 l 0.823 -0.341 c 0.136 -0.056 0.2 -0.213 0.144 -0.349 c -0.133 -0.321 -0.008 -0.608 0.153 -0.768 c 0.16 -0.161 0.446 -0.286 0.768 -0.152 c 0.135 0.056 0.292 -0.009 0.348 -0.145 l 0.341 -0.823 c 0.056 -0.136 -0.008 -0.292 -0.144 -0.348 l 0 0 c -0.321 -0.133 -0.435 -0.424 -0.435 -0.651 c -0.001 -0.227 0.113 -0.518 0.435 -0.651 c 0.066 -0.027 0.117 -0.078 0.144 -0.144 c 0.027 -0.066 0.027 -0.138 0 -0.204 l -0.341 -0.824 c -0.056 -0.135 -0.213 -0.2 -0.348 -0.144 c -0.321 0.133 -0.608 0.008 -0.768 -0.153 c -0.161 -0.161 -0.286 -0.447 -0.153 -0.768 c 0.027 -0.066 0.027 -0.138 0 -0.204 c -0.027 -0.066 -0.079 -0.117 -0.144 -0.144 L 13.068 8.49 c -0.135 -0.056 -0.292 0.009 -0.348 0.145 c -0.133 0.321 -0.424 0.435 -0.651 0.435 c -0.228 0 -0.519 -0.114 -0.651 -0.435 c -0.027 -0.066 -0.079 -0.117 -0.144 -0.144 c -0.066 -0.027 -0.138 -0.027 -0.204 0 l -0.823 0.341 c -0.067 0.028 -0.117 0.078 -0.144 0.144 c -0.027 0.066 -0.027 0.138 0 0.204 c 0.133 0.321 0.008 0.607 -0.153 0.768 C 9.787 10.108 9.5 10.233 9.179 10.1 c -0.067 -0.028 -0.137 -0.028 -0.204 0 c -0.066 0.027 -0.117 0.078 -0.144 0.144 L 8.49 11.068 c -0.027 0.066 -0.027 0.138 0 0.204 c 0.027 0.066 0.079 0.117 0.144 0.144 c 0.321 0.133 0.435 0.424 0.435 0.651 c 0 0.228 -0.114 0.518 -0.435 0.651 c -0.066 0.027 -0.117 0.078 -0.144 0.144 c -0.027 0.066 -0.027 0.138 0 0.204 l 0.341 0.823 c 0.027 0.066 0.079 0.117 0.145 0.145 c 0.066 0.027 0.138 0.027 0.204 0 C 9.274 13.996 9.366 13.979 9.452 13.979 z" style="stroke: none; stroke-width: 1; stroke-dasharray: none; stroke-linecap: butt; stroke-linejoin: miter; stroke-miterlimit: 10; fill: rgb(0,0,0); fill-rule: nonzero; opacity: 1;" transform=" matrix(3.89 0 0 3.89 -1.9444444444444287 -1.9444444444444287) " stroke-linecap="round" />
	<path d="M 45 52 c -3.86 0 -7 -3.141 -7 -7 c 0 -3.86 3.14 -7 7 -7 c 3.859 0 7 3.14 7 7 C 52 48.859 48.859 52 45 52 z M 45 40 c -2.757 0 -5 2.243 -5 5 s 2.243 5 5 5 s 5 -2.243 5 -5 S 47.757 40 45 40 z" style="stroke: none; stroke-width: 1; stroke-dasharray: none; stroke-linecap: butt; stroke-linejoin: miter; stroke-miterlimit: 10; fill: rgb(0,0,0); fill-rule: nonzero; opacity: 1;" transform=" matrix(1 0 0 1 0 0) " stroke-linecap="round" />
</g>
</svg>